# xmcd
#
# Track frame offsets:
#	150
#	18512
#	31165
#	51719
#	71714
#	85534
#	101839
#	115761
#	134628
#	152573
#	171931
#	190288
#
# Disc length: 2757 seconds
#
# Revision: 1
# Processed by: cddbd v1.4PL0 Copyright (c) Steve Scherf et al.
# Submitted via: EasyCDDAExtractor 6.0.0.1
#
DISCID=a50ac30c
DTITLE=Johnny Mac - Starin' At The Wall
DYEAR=1999
DGENRE=Country
TTITLE0=The River
TTITLE1=Wish I Had a Dollar
TTITLE2=The Bayou
TTITLE3=Starin' at the Wall
TTITLE4=All I Need is You
TTITLE5=Splash
TTITLE6=I Got the Blues Again
TTITLE7=Heart Dance
TTITLE8=Bypass Waco
TTITLE9=I'm A Whale
TTITLE10=Lost and Found
TTITLE11=When Pigs Fly
EXTD=
EXTT0=
EXTT1=
EXTT2=
EXTT3=
EXTT4=
EXTT5=
EXTT6=
EXTT7=
EXTT8=
EXTT9=
EXTT10=
EXTT11=
PLAYORDER=
